<svg width="40" height="40" viewBox="0 0 40 40" fill="none" xmlns="http://www.w3.org/2000/svg">
<path d="M28.3341 20.4165C28.3342 20.5807 28.302 20.7433 28.2391 20.895C28.1763 21.0466 28.0841 21.1844 27.9678 21.3003L15.4678 33.8003C14.9794 34.2887 14.1884 34.2887 13.7003 33.8003C13.2122 33.3119 13.2119 32.5209 13.7003 32.0328L25.3166 20.4165L13.7003 8.80029C13.2119 8.31186 13.2119 7.52092 13.7003 7.03279C14.1888 6.54467 14.9797 6.54436 15.4678 7.03279L27.9678 19.5328C28.0841 19.6487 28.1763 19.7865 28.2391 19.9381C28.302 20.0898 28.3342 20.2524 28.3341 20.4165Z" fill="#13292F"/>
</svg>
