<svg width="40" height="40" viewBox="0 0 40 40" fill="none" xmlns="http://www.w3.org/2000/svg">
<path d="M11.6659 20.4165C11.6658 20.5807 11.698 20.7433 11.7609 20.895C11.8237 21.0466 11.9159 21.1844 12.0322 21.3003L24.5322 33.8003C25.0206 34.2887 25.8116 34.2887 26.2997 33.8003C26.7878 33.3119 26.7881 32.5209 26.2997 32.0328L14.6834 20.4165L26.2997 8.80029C26.7881 8.31186 26.7881 7.52092 26.2997 7.03279C25.8112 6.54467 25.0203 6.54436 24.5322 7.03279L12.0322 19.5328C11.9159 19.6487 11.8237 19.7865 11.7609 19.9381C11.698 20.0898 11.6658 20.2524 11.6659 20.4165Z" fill="#13292F"/>
</svg>
