<svg width="38" height="38" viewBox="0 0 38 38" fill="none" xmlns="http://www.w3.org/2000/svg">
<path d="M19.3144 6.79333C19.2187 6.73771 19.11 6.70841 18.9994 6.70841C18.8887 6.70841 18.7801 6.73771 18.6844 6.79333L8.68439 12.6267C8.59003 12.6817 8.51175 12.7606 8.45736 12.8553C8.40296 12.9501 8.37436 13.0574 8.37439 13.1667V24.8333C8.37436 24.9426 8.40296 25.0499 8.45736 25.1447C8.51175 25.2394 8.59003 25.3183 8.68439 25.3733L18.6844 31.2067C18.8819 31.3208 19.1177 31.3217 19.3144 31.2067L29.3144 25.3733C29.4088 25.3183 29.487 25.2394 29.5414 25.1447C29.5958 25.0499 29.6244 24.9426 29.6244 24.8333V13.1667C29.6244 13.0574 29.5958 12.9501 29.5414 12.8553C29.487 12.7606 29.4088 12.6817 29.3144 12.6267L19.3144 6.79333ZM18.9994 18.2767L15.1811 16.0492L23.8894 10.91L27.7602 13.1667L18.9994 18.2767ZM18.9994 8.05667L22.6536 10.1883L13.9444 15.3275L10.2394 13.1667L18.9994 8.05667ZM9.62439 14.255L18.3744 19.3592V29.5783L9.62439 24.4742V14.255ZM19.6244 29.5783V19.3592L28.3744 14.255V24.4742L19.6244 29.5783ZM8.89106 4.4625C11.8532 2.38914 15.3837 1.28168 18.9994 1.29167C23.1511 1.28108 27.1726 2.74063 30.3511 5.41167H29.6061C28.7936 5.41167 28.7986 6.66167 29.6061 6.66167H31.9636C32.1293 6.66167 32.2883 6.59582 32.4055 6.47861C32.5227 6.3614 32.5886 6.20243 32.5886 6.03667V3.67917C32.5886 2.8875 31.3386 2.86583 31.3386 3.67917V4.62083C27.9111 1.65833 23.5297 0.0323367 18.9994 0.0416659C15.0952 0.0416659 11.3519 1.21583 8.17522 3.4375C7.53022 3.88833 8.22272 4.93083 8.89189 4.4625H8.89106ZM34.3202 31.3392H33.3786C36.3411 27.9118 37.9671 23.5303 37.9577 19C37.9577 15.095 36.7827 11.3517 34.5619 8.175C34.1111 7.53083 33.0619 8.21417 33.5369 8.89167C35.6103 11.8538 36.7177 15.3843 36.7077 19C36.7183 23.1517 35.2588 27.1732 32.5877 30.3517V29.6067C32.5877 28.7958 31.3377 28.7967 31.3377 29.6067V31.9642C31.3377 32.3092 31.6177 32.5892 31.9627 32.5892H34.3202C35.0986 32.5892 35.1369 31.3392 34.3202 31.3392ZM29.1077 33.5375C26.1455 35.6109 22.6151 36.7183 18.9994 36.7083C14.8476 36.7189 10.8262 35.2594 7.64772 32.5883H8.39272C9.19606 32.5883 9.20356 31.3383 8.39272 31.3383H6.03522C5.86946 31.3383 5.71049 31.4042 5.59328 31.5214C5.47607 31.6386 5.41022 31.7976 5.41022 31.9633V34.3208C5.41022 35.1233 6.66022 35.135 6.66022 34.3208V33.3792C10.0876 36.3417 14.4691 37.9677 18.9994 37.9583C22.9036 37.9583 26.6469 36.7833 29.8236 34.5625C30.4369 34.1333 29.7986 33.0542 29.1077 33.5375ZM1.29106 19C1.28047 14.8483 2.74002 10.8268 5.41106 7.64833V8.39333C5.41106 9.19667 6.66106 9.20417 6.66106 8.39333V6.03583C6.66106 5.87007 6.59521 5.7111 6.478 5.59389C6.36079 5.47668 6.20182 5.41083 6.03606 5.41083H3.67856C2.87606 5.41083 2.86522 6.66083 3.67856 6.66083H4.62022C1.65772 10.0883 0.0317264 14.4697 0.0410555 19C0.0410555 22.9042 1.21606 26.6475 3.43689 29.8242C3.88022 30.4575 4.93189 29.7783 4.46189 29.1075C2.38869 26.1456 1.28125 22.6154 1.29106 19Z" fill="#13292F"/>
</svg>
