<svg width="23" height="23" viewBox="0 0 23 23" fill="none" xmlns="http://www.w3.org/2000/svg">
<path d="M21.5124 0.125313H4.16394C3.9153 0.125313 3.67684 0.224085 3.50103 0.3999C3.32521 0.575715 3.22644 0.814172 3.22644 1.06281C3.22644 1.31145 3.32521 1.54991 3.50103 1.72573C3.67684 1.90154 3.9153 2.00031 4.16394 2.00031H19.6739L0.437379 21.2378C0.344388 21.3234 0.269662 21.4269 0.217693 21.5421C0.165724 21.6573 0.137585 21.7818 0.134967 21.9082C0.132349 22.0345 0.155306 22.1601 0.202459 22.2774C0.249612 22.3946 0.319987 22.5012 0.409353 22.5905C0.49872 22.6799 0.605233 22.7503 0.72249 22.7974C0.839748 22.8446 0.965329 22.8675 1.09168 22.8649C1.21804 22.8623 1.34256 22.8342 1.45777 22.7822C1.57297 22.7302 1.67648 22.6555 1.76207 22.5625L20.9996 3.325V18.8359C20.9996 19.0846 21.0983 19.323 21.2742 19.4988C21.45 19.6747 21.6884 19.7734 21.9371 19.7734C22.1857 19.7734 22.4242 19.6747 22.6 19.4988C22.7758 19.323 22.8746 19.0846 22.8746 18.8359V1.48844C22.8741 1.12723 22.7304 0.780942 22.4751 0.525441C22.2198 0.26994 21.8736 0.126057 21.5124 0.125313Z" fill="#13292F"/>
</svg>
