<svg width="38" height="40" viewBox="0 0 38 40" fill="none" xmlns="http://www.w3.org/2000/svg">
<path d="M24.5685 12.6768C20.6784 6.95375 15.4828 3.91199 12.7619 5.77572C12.4623 5.98671 12.202 6.24854 11.9927 6.54935C11.9927 6.57133 5.69379 19.3186 5.69379 19.3186L2.17731 21.701C1.63748 22.0675 1.17514 22.5367 0.816693 23.0818C0.458249 23.627 0.210728 24.2375 0.0882697 24.8784C-0.0341886 25.5192 -0.0291845 26.1779 0.102996 26.8169C0.235177 27.4558 0.491944 28.0624 0.858629 28.6021L1.01687 28.8351C1.75806 29.9148 2.89503 30.6587 4.18118 30.9056C5.46732 31.1524 6.79894 30.8823 7.8872 30.1537L13.5356 38.4746C14.3663 39.4988 15.9619 40.5186 17.9312 39.3186C18.28 39.0924 18.5776 38.7956 18.8047 38.4473C19.0319 38.099 19.1835 37.7071 19.2498 37.2966C19.3294 36.8883 19.3272 36.4684 19.2435 36.0609C19.1597 35.6535 18.9961 35.2668 18.7619 34.923L13.7861 27.5823C13.7861 27.5823 25.5487 26.6461 25.5927 26.6285C25.9599 26.5516 26.3082 26.4022 26.6169 26.1889C28.0147 25.2395 28.5158 23.2482 28.0323 20.5801C27.5971 18.123 26.3619 15.3406 24.5685 12.6768ZM2.29599 27.9691L2.13775 27.7362C1.88476 27.3637 1.7077 26.945 1.61672 26.504C1.52575 26.0631 1.52263 25.6085 1.60755 25.1663C1.69248 24.7241 1.86377 24.3031 2.11164 23.9272C2.3595 23.5513 2.67906 23.228 3.05204 22.9757L6.0894 20.9098L10.0982 26.8131L7.06083 28.879C6.68829 29.1323 6.26947 29.3098 5.82833 29.4011C5.38718 29.4925 4.93236 29.496 4.48984 29.4115C4.04733 29.327 3.62581 29.1562 3.24938 28.9087C2.87294 28.6612 2.54897 28.3419 2.29599 27.9691ZM17.496 35.7889C17.7362 36.1464 17.8249 36.5845 17.7425 37.0073C17.6601 37.43 17.4133 37.8028 17.0564 38.0439C16.6983 38.2843 16.2594 38.3731 15.836 38.2907C15.4125 38.2083 15.039 37.9615 14.7971 37.6043L9.16632 29.3098L11.4301 27.7713L12.0279 27.723L17.496 35.7889ZM11.5531 26.2153L7.1839 19.7801L11.3509 11.2834C11.7553 13.6702 12.9377 16.5054 14.8279 19.2878C16.718 22.0702 18.9158 24.2153 20.9817 25.4724L11.5531 26.2153ZM24.5202 25.1911C22.4191 25.0548 18.9993 22.6856 16.1026 18.4175C13.2059 14.1493 12.2652 10.1098 12.9114 8.101C13.0281 7.72394 13.2609 7.39339 13.5767 7.15657C13.8924 6.91975 14.275 6.78876 14.6696 6.78232C16.7531 6.78232 20.3004 9.16473 23.2806 13.5559C24.9597 16.0263 26.1817 18.6109 26.5158 20.8702C27.1707 25.1911 24.5202 25.1911 24.5202 25.1911Z" fill="#13292F"/>
<path d="M19.0739 12.8394C18.5354 12.7337 17.9813 12.7364 17.444 12.8473C16.9066 12.9583 16.3967 13.1753 15.9442 13.4856C15.8608 13.5433 15.7896 13.6169 15.7346 13.7022C15.6796 13.7874 15.642 13.8827 15.6238 13.9824C15.6056 14.0822 15.6073 14.1846 15.6287 14.2838C15.6501 14.3829 15.6909 14.4769 15.7486 14.5603C15.8063 14.6437 15.8799 14.715 15.9652 14.7699C16.0504 14.8249 16.1456 14.8625 16.2454 14.8807C16.3452 14.8989 16.4476 14.8972 16.5468 14.8758C16.6459 14.8544 16.7399 14.8136 16.8233 14.7559C17.1099 14.5614 17.432 14.4252 17.7713 14.3552C18.1105 14.2851 18.4602 14.2826 18.8004 14.3477C19.1406 14.4128 19.4647 14.5443 19.7541 14.7346C20.0435 14.9249 20.2925 15.1704 20.4871 15.457C20.6816 15.7436 20.8178 16.0657 20.8878 16.405C20.9578 16.7442 20.9604 17.0939 20.8953 17.4341C20.8302 17.7743 20.6987 18.0984 20.5084 18.3878C20.318 18.6772 20.0726 18.9262 19.786 19.1208C19.6508 19.2141 19.5491 19.3482 19.4957 19.5035C19.4422 19.6588 19.4399 19.8271 19.4891 19.9838C19.5382 20.1405 19.6362 20.2774 19.7687 20.3744C19.9012 20.4714 20.0613 20.5235 20.2255 20.523C20.3822 20.5259 20.5359 20.4798 20.6651 20.3911C21.3488 19.928 21.8796 19.2723 22.1904 18.5072C22.5011 17.7421 22.5778 16.902 22.4107 16.0933C22.2436 15.2846 21.8402 14.5437 21.2517 13.9645C20.6631 13.3852 19.9159 12.9937 19.1046 12.8394H19.0739ZM25.5178 7.32736H25.5925C25.7828 7.32728 25.9663 7.25669 26.1075 7.12924C26.2488 7.00178 26.3378 6.8265 26.3574 6.63725L26.9508 0.870213C26.9643 0.768237 26.9572 0.664587 26.9299 0.565398C26.9027 0.466208 26.8558 0.373494 26.7921 0.292739C26.7284 0.211984 26.6491 0.144829 26.559 0.0952487C26.4688 0.045668 26.3697 0.0146682 26.2674 0.00408329C26.165 -0.00650161 26.0616 0.00354348 25.9633 0.0336242C25.8649 0.063705 25.7736 0.11321 25.6947 0.179211C25.6158 0.245212 25.5509 0.326368 25.5039 0.417877C25.4569 0.509386 25.4288 0.60939 25.4211 0.711971L24.8321 6.4834C24.8112 6.68623 24.8717 6.88906 25.0003 7.04731C25.1289 7.20556 25.315 7.30629 25.5178 7.32736ZM35.4607 6.14054C35.3477 5.97029 35.172 5.85163 34.9719 5.81045C34.7718 5.76928 34.5635 5.80893 34.3925 5.92076L29.0343 9.43725C28.8952 9.52912 28.7897 9.66371 28.7336 9.82074C28.6776 9.97778 28.6742 10.1488 28.7237 10.308C28.7733 10.4671 28.8733 10.6059 29.0086 10.7033C29.1439 10.8008 29.3072 10.8516 29.4739 10.8482C29.6294 10.8518 29.7824 10.809 29.9134 10.7252L35.2717 7.20867C35.4379 7.09172 35.5511 6.91373 35.5865 6.71359C35.6219 6.51346 35.5767 6.30744 35.4607 6.14054ZM37.1002 15.5296L30.8673 14.4087C30.6662 14.3725 30.459 14.4178 30.2912 14.5344C30.1235 14.651 30.0089 14.8296 29.9728 15.0307C29.9366 15.2317 29.9819 15.439 30.0985 15.6067C30.2151 15.7745 30.3936 15.889 30.5947 15.9252L36.8233 17.046H36.9596C37.1556 17.0518 37.3464 16.9824 37.4929 16.8522C37.6395 16.722 37.7309 16.5407 37.7483 16.3454C37.7657 16.1501 37.7078 15.9555 37.5866 15.8014C37.4653 15.6473 37.2898 15.5454 37.0958 15.5164L37.1002 15.5296Z" fill="#13292F"/>
</svg>
