<svg width="38" height="38" viewBox="0 0 38 38" fill="none" xmlns="http://www.w3.org/2000/svg">
<path d="M8.3671 35.824C8.51942 36.3241 8.82812 36.7623 9.24787 37.074C9.66761 37.3858 10.1763 37.5547 10.6991 37.556C10.936 37.5561 11.1717 37.5225 11.3991 37.456L27.2471 32.684L30.0991 32.312C30.4162 32.271 30.7222 32.168 30.9994 32.0086C31.2767 31.8493 31.5198 31.6369 31.7149 31.3835C31.9099 31.1301 32.0531 30.8407 32.1362 30.532C32.2193 30.2232 32.2407 29.901 32.1991 29.584L30.6951 18.104L35.4311 10.84L36.5991 9.07598L37.1591 8.19998C37.5522 7.59847 37.6902 6.86545 37.5428 6.16219C37.3953 5.45893 36.9746 4.84303 36.3731 4.44998C35.7716 4.05693 35.0386 3.91892 34.3353 4.06633C33.6321 4.21373 33.0162 4.63447 32.6231 5.23598L32.0471 6.11998L30.8951 7.87998L29.6031 9.85598L28.6391 2.51598C28.5977 2.1992 28.4943 1.89368 28.3347 1.61688C28.1752 1.34009 27.9627 1.09744 27.7094 0.90279C27.456 0.708144 27.1668 0.565321 26.8583 0.482478C26.5497 0.399636 26.2279 0.378398 25.9111 0.419978L9.0791 2.63198C8.46677 2.71105 7.90769 3.02081 7.51595 3.49803C7.12421 3.97525 6.92934 4.58398 6.9711 5.19998L2.1311 6.65598C1.51384 6.84187 0.995632 7.26522 0.690362 7.83301C0.385093 8.4008 0.31774 9.06656 0.503104 9.68398L8.3671 35.824ZM32.7231 7.27598L33.9871 8.09998L35.2471 8.92398L34.7511 9.68398L32.2271 8.03598L32.7231 7.27598ZM33.6271 5.88798C33.8462 5.55274 34.1894 5.31827 34.5814 5.23612C34.9733 5.15398 35.3819 5.23091 35.7171 5.44998C36.0523 5.66905 36.2868 6.01231 36.369 6.40426C36.4511 6.79622 36.3742 7.20474 36.1551 7.53998L35.9071 7.91998L33.3991 6.26798L33.6271 5.88798ZM31.5711 9.03998L32.8351 9.86398L34.0951 10.688L26.3951 22.48L25.1311 21.656L23.8711 20.832L31.5711 9.03998ZM22.3711 25.164L22.6111 24.396C23.0134 24.5 23.3703 24.7333 23.6271 25.06L23.0191 25.588C22.9535 25.6476 22.87 25.6837 22.7817 25.6907C22.6934 25.6977 22.6052 25.6752 22.5311 25.6267C22.4569 25.5782 22.401 25.5064 22.372 25.4227C22.3431 25.3389 22.3428 25.2479 22.3711 25.164ZM24.5311 24.272C24.1283 23.7752 23.5799 23.4171 22.9631 23.248L23.3631 21.94L25.5591 23.376L24.5311 24.272ZM8.4151 4.29198C8.51409 4.16331 8.63746 4.0554 8.77815 3.97441C8.91885 3.89342 9.07412 3.84095 9.2351 3.81998L26.0671 1.61198C26.1217 1.60801 26.1765 1.60801 26.2311 1.61198C26.5262 1.61797 26.8093 1.72935 27.0294 1.92596C27.2495 2.12258 27.392 2.39146 27.4311 2.68398L28.5991 11.4L25.5351 16.084L19.5111 16.884C19.4323 16.889 19.3553 16.9094 19.2844 16.9442C19.2135 16.979 19.1502 17.0273 19.098 17.0866C18.9926 17.2062 18.939 17.3628 18.9491 17.522C18.9592 17.6811 19.0321 17.8297 19.1517 17.9351C19.2714 18.0405 19.428 18.0941 19.5871 18.084H19.6671L24.6711 17.4L22.5391 20.668C22.5384 20.6813 22.5384 20.6947 22.5391 20.708C22.5238 20.733 22.5117 20.7599 22.5031 20.788L22.1311 21.988L13.6031 23.136C13.444 23.1466 13.2956 23.22 13.1906 23.34C13.0855 23.46 13.0325 23.6168 13.0431 23.776C13.0537 23.9351 13.1271 24.0835 13.2471 24.1885C13.3671 24.2935 13.524 24.3466 13.6831 24.336H13.7591L21.7071 23.296L21.2351 24.824C21.1323 25.1558 21.1404 25.5121 21.258 25.839C21.3756 26.1659 21.5964 26.4457 21.8871 26.636C22.1472 26.8074 22.4516 26.8991 22.7631 26.9C23.1493 26.8975 23.5215 26.7554 23.8111 26.5L26.9631 23.772L26.9951 23.736C27.0195 23.7134 27.041 23.6879 27.0591 23.66L29.6671 19.66L30.9991 29.74C31.0206 29.9006 31.0101 30.0638 30.9682 30.2204C30.9264 30.3769 30.8539 30.5236 30.7551 30.652C30.6594 30.7791 30.5395 30.886 30.4021 30.9663C30.2648 31.0467 30.1128 31.0989 29.9551 31.12L13.1071 33.332C12.9466 33.3527 12.7836 33.3417 12.6274 33.2995C12.4712 33.2572 12.3248 33.1846 12.1967 33.0858C12.0686 32.987 11.9611 32.864 11.8805 32.7236C11.8 32.5833 11.7478 32.4285 11.7271 32.268L8.1711 5.20398C8.12856 4.87967 8.2163 4.55172 8.4151 4.29198ZM2.4791 7.79998L7.1191 6.40398L10.5351 32.424C10.6123 33.007 10.8979 33.5423 11.339 33.9312C11.7801 34.3202 12.347 34.5364 12.9351 34.54C13.0422 34.5399 13.1492 34.5319 13.2551 34.516L19.8471 33.652L11.0471 36.3C10.7357 36.3934 10.4001 36.3595 10.1136 36.2058C9.8272 36.0521 9.6134 35.7911 9.5191 35.48L1.6511 9.33998C1.6043 9.18449 1.5886 9.02131 1.60489 8.85976C1.62117 8.6982 1.66913 8.54144 1.74603 8.39842C1.82292 8.25541 1.92724 8.12895 2.05302 8.02626C2.17881 7.92358 2.32359 7.84669 2.4791 7.79998ZM14.5751 7.15998C14.5547 7.00248 14.5975 6.8433 14.6942 6.71734C14.7909 6.59137 14.9337 6.50889 15.0911 6.48798L24.6911 5.22398C24.8502 5.20329 25.0111 5.24667 25.1382 5.34456C25.2654 5.44245 25.3484 5.58685 25.3691 5.74598C25.3898 5.90511 25.3464 6.06594 25.2485 6.19309C25.1506 6.32024 25.0062 6.40329 24.8471 6.42398L15.2471 7.68398H15.1711C15.0252 7.68333 14.8845 7.62991 14.775 7.5336C14.6654 7.43728 14.5944 7.30457 14.5751 7.15998ZM11.6711 13.024C11.6611 12.9451 11.6668 12.865 11.688 12.7884C11.7092 12.7117 11.7454 12.64 11.7945 12.5775C11.8436 12.515 11.9047 12.4628 11.9742 12.4241C12.0436 12.3854 12.1201 12.3609 12.1991 12.352L25.3991 10.6C25.5582 10.5793 25.7191 10.6227 25.8462 10.7206C25.9734 10.8185 26.0564 10.9628 26.0771 11.122C26.0978 11.2811 26.0544 11.4419 25.9565 11.5691C25.8586 11.6962 25.7142 11.7793 25.5551 11.8L12.3431 13.544H12.2671C12.1218 13.5435 11.9816 13.4906 11.8721 13.3951C11.7627 13.2996 11.6913 13.1678 11.6711 13.024ZM16.1551 17.92C16.1664 17.9986 16.1619 18.0786 16.142 18.1555C16.1221 18.2324 16.0871 18.3045 16.0391 18.3678C15.9911 18.431 15.9311 18.4841 15.8624 18.524C15.7937 18.5638 15.7178 18.5897 15.6391 18.6L13.0511 18.94H12.9751C12.816 18.9506 12.6591 18.8975 12.5391 18.7925C12.4191 18.6875 12.3457 18.5391 12.3351 18.38C12.3245 18.2208 12.3775 18.064 12.4826 17.944C12.5876 17.824 12.736 17.7506 12.8951 17.74L15.4831 17.4C15.5614 17.3899 15.6409 17.3953 15.7171 17.416C15.7932 17.4367 15.8646 17.4722 15.927 17.5205C15.9894 17.5688 16.0417 17.629 16.0809 17.6975C16.12 17.7661 16.1452 17.8417 16.1551 17.92ZM13.7991 29.2C13.7787 29.0425 13.8215 28.8833 13.9182 28.7573C14.0149 28.6314 14.1577 28.5489 14.3151 28.528L18.9191 27.924C18.9979 27.9135 19.078 27.9186 19.1548 27.939C19.2316 27.9595 19.3037 27.9949 19.3668 28.0431C19.4299 28.0914 19.483 28.1517 19.5228 28.2205C19.5627 28.2892 19.5886 28.3652 19.5991 28.444C19.6096 28.5228 19.6045 28.6029 19.584 28.6797C19.5636 28.7565 19.5282 28.8285 19.4799 28.8917C19.4317 28.9548 19.3714 29.0078 19.3026 29.0477C19.2339 29.0875 19.1579 29.1135 19.0791 29.124L14.4671 29.716H14.3911C14.2469 29.7155 14.1077 29.663 13.999 29.5683C13.8902 29.4735 13.8193 29.3428 13.7991 29.2Z" fill="#13292F"/>
</svg>
