<svg width="24" height="24" viewBox="0 0 24 24" fill="none" xmlns="http://www.w3.org/2000/svg">
<path d="M22.1699 1.82004L21.1199 0.910037C20.8324 0.622307 20.491 0.394056 20.1153 0.238326C19.7395 0.0825966 19.3367 0.00244141 18.9299 0.00244141C18.5232 0.00244141 18.1204 0.0825966 17.7446 0.238326C17.3689 0.394056 17.0275 0.622307 16.7399 0.910037C16.7099 0.940036 14.8599 3.35004 14.8599 3.35004C14.3111 3.92736 14.0051 4.69348 14.0051 5.49004C14.0051 6.2866 14.3111 7.05271 14.8599 7.63004L16.0199 9.09004C14.5599 12.4 12.2899 14.68 9.08994 16.04L7.62994 14.87C7.05497 14.3166 6.28797 14.0075 5.48994 14.0075C4.69192 14.0075 3.92492 14.3166 3.34994 14.87C3.34994 14.87 0.939943 16.72 0.909943 16.75C-0.300057 17.96 -0.300057 19.92 0.859943 21.08L1.85994 22.23C3.00994 23.38 4.55994 24.01 6.23994 24.01C13.8799 24.01 23.9999 13.88 23.9999 6.25004C23.9999 4.58004 23.3699 3.02004 22.1699 1.83004V1.82004ZM6.23994 22C5.09994 22 4.04994 21.58 3.32994 20.85L2.32994 19.7C2.13177 19.501 2.01722 19.2337 2.00978 18.953C2.00235 18.6722 2.10258 18.3993 2.28994 18.19C2.28994 18.19 4.67994 16.35 4.70994 16.32C5.11994 15.91 5.83994 15.91 6.25994 16.32C6.28994 16.35 8.29994 17.96 8.29994 17.96C8.57994 18.18 8.94994 18.24 9.27994 18.11C13.4199 16.53 16.3899 13.57 18.0999 9.30004C18.2299 8.97004 18.1799 8.59004 17.9499 8.30004C17.9499 8.30004 16.3399 6.28004 16.3199 6.26004C15.8899 5.83004 15.8899 5.14004 16.3199 4.71004C16.3499 4.68004 18.1899 2.29004 18.1899 2.29004C18.6199 1.90004 19.2899 1.91004 19.7499 2.37004L20.7999 3.28004C21.5699 4.05004 21.9999 5.10004 21.9999 6.24004C21.9999 13.2 12.2299 22 6.23994 22Z" fill="#13292F"/>
</svg>
