<svg width="40" height="40" viewBox="0 0 40 40" fill="none" xmlns="http://www.w3.org/2000/svg">
<g clip-path="url(#clip0_104_2405)">
<path d="M18.0861 0.0859108C11.8361 0.734348 6.35951 4.13279 3.03138 9.42966C-1.68737 16.9297 -0.804554 26.8437 5.15638 33.375C8.46107 36.9922 12.5861 39.1562 17.5392 39.8594C18.4611 39.9922 21.5314 39.9844 22.5001 39.8594C27.0236 39.2344 31.0704 37.2265 34.1486 34.0859C35.1642 33.0547 35.3751 32.8125 36.047 31.9219C38.047 29.2578 39.3517 26.0078 39.8595 22.4609C39.9923 21.539 39.9923 18.4609 39.8595 17.539C39.5236 15.1718 38.9064 13.1562 37.9298 11.1797C36.8829 9.08591 35.8204 7.59372 34.1564 5.91404C31.0704 2.78904 27.2111 0.843723 22.7736 0.187473C21.8126 0.0468483 19.0392 -0.0156517 18.0861 0.0859108ZM23.047 7.99216C30.0392 9.65622 34.0079 16.7187 31.7579 23.4844C31.1798 25.2344 30.2579 26.6953 28.8673 28.0937C27.1095 29.8594 25.2111 30.8906 22.7345 31.414C22.0548 31.5625 21.6642 31.5937 20.4689 31.5937C18.4923 31.6015 17.2579 31.3437 15.5158 30.5781C15.0861 30.3906 14.6798 30.2344 14.6095 30.2344C14.547 30.2344 13.1251 30.6015 11.4454 31.0469C9.77357 31.4844 8.39076 31.8437 8.38295 31.8359C8.36732 31.8281 8.74232 30.4375 9.20326 28.75L10.047 25.6719L9.67982 24.9219C8.8517 23.2422 8.48451 21.6406 8.48451 19.6875C8.49232 16.3437 9.67201 13.5078 12.0314 11.1718C13.8829 9.33591 16.2267 8.19529 18.9454 7.78122C19.0783 7.7656 19.8673 7.75779 20.7033 7.77341C22.0001 7.79685 22.3517 7.8281 23.047 7.99216Z" fill="#13292F"/>
<path d="M19.5703 9.78125C15.7422 10.0547 12.2422 12.7891 11.0156 16.4688C10.625 17.6562 10.5156 18.3594 10.5156 19.6875C10.5156 21.7109 10.8984 23.0625 12.0391 25.0469L12.2187 25.375L11.7344 27.1484C11.4687 28.125 11.2578 28.9453 11.2812 28.9609C11.2969 28.9766 12.125 28.7734 13.125 28.5156L14.9453 28.0312L15.8906 28.5078C17.4453 29.2812 18.7969 29.6094 20.4766 29.6094C24.6719 29.6094 28.5078 26.8438 29.8359 22.8438C30.2344 21.6328 30.3359 21.0156 30.3359 19.6875C30.3359 18.7344 30.2969 18.3047 30.1641 17.6562C29.3125 13.6641 26.1719 10.6016 22.1875 9.89062C21.3359 9.74219 20.5469 9.71094 19.5703 9.78125ZM17.2031 14.3203C17.4531 14.6016 18.4609 17.0938 18.4062 17.3047C18.3828 17.3984 18.1484 17.75 17.8906 18.0938C17.6328 18.4297 17.4219 18.7578 17.4219 18.8281C17.4219 18.9766 18.0469 19.9062 18.5312 20.4766C19.0547 21.0938 20.0469 21.8438 20.8828 22.2734C21.9375 22.7969 21.9922 22.7969 22.5937 22.0547C23.3437 21.1406 23.4141 21.0781 23.6172 21.1328C23.8516 21.2031 26.0859 22.25 26.3203 22.3984C26.4922 22.5078 26.5 22.5547 26.4609 23.0391C26.4375 23.3281 26.3594 23.7109 26.2891 23.8906C26.125 24.2969 25.5312 24.8438 24.9375 25.1328C24.5234 25.3359 24.4219 25.3516 23.5547 25.3516C22.6875 25.3516 22.5625 25.3281 21.875 25.0859C20.7422 24.6797 20.0391 24.3438 19.1875 23.7734C17.5469 22.6797 15.6016 20.4844 14.8047 18.8203C14.4609 18.0938 14.3516 17.5469 14.3906 16.7188C14.4297 15.9453 14.625 15.4375 15.1406 14.7969C15.5625 14.2812 15.8437 14.1484 16.5078 14.1406C16.9687 14.1406 17.0625 14.1641 17.2031 14.3203Z" fill="#13292F"/>
</g>
<defs>
<clipPath id="clip0_104_2405">
<rect width="40" height="40" fill="white"/>
</clipPath>
</defs>
</svg>
